# xmcd
#
# Track frame offsets:
#	150
#	17348
#	33445
#	44948
#	56643
#	68522
#	80869
#	94480
#	110838
#	130223
#
# Disc length: 1896 seconds
#
# Revision: 1
# Processed by: cddbd v1.5.2PL0 Copyright (c) Steve Scherf et al.
# Submitted via: audiograbber 1.83.01
#
DISCID=8f07660a
DTITLE=Various Artist - Convoy
DYEAR=1900
DGENRE=Country
TTITLE0=CW McCall - Convoy
TTITLE1=Kenny Rogers - Lucille
TTITLE2=Gene Watson - Cowboys Don't Get Lucky All the Time
TTITLE3=Crystal Gayle - Don't It Make My Brown Eyes Blue
TTITLE4=Billy "Crash" Craddock - I Cheated On A Good Woman's Love
TTITLE5=Merle Haggard - Okie From Muskogee
TTITLE6=Glen Campbell - Southern Nights
TTITLE7=Billie Jo Spears - Blanket On The Ground
TTITLE8=Doc Watson - Keep On the Sunny Side
TTITLE9=Anne Murray - Walk Right Back
EXTD=
EXTT0=
EXTT1=
EXTT2=
EXTT3=
EXTT4=
EXTT5=
EXTT6=
EXTT7=
EXTT8=
EXTT9=
PLAYORDER=
